<svg width="143" height="45" viewBox="0 0 143 45" fill="none" xmlns="http://www.w3.org/2000/svg">
<path d="M7.98577 5.20805C8.51967 2.63559 10.7861 0.791275 13.4134 0.791275H135.428C139.145 0.791275 141.809 4.37796 140.735 7.93656L131.276 39.268C130.57 41.6081 128.414 43.2093 125.969 43.2093H6.9106C3.39614 43.2093 0.768813 39.9806 1.48301 36.5395L7.98577 5.20805Z" fill="#E6EBFF" stroke="#4B70F5" stroke-width="0.160674"/>
<path d="M12.0498 11.7207C12.0498 9.29306 14.1866 7.42024 16.5932 7.73847L44.9311 11.4856C45.2857 11.5325 45.645 11.5318 45.9994 11.4835L73.3676 7.75821C75.7791 7.42996 77.9262 9.30459 77.9262 11.7384V26.9127C77.9262 29.2483 75.9411 31.0914 73.6119 30.9185L45.7585 28.8505C45.5634 28.836 45.3674 28.8358 45.1722 28.8499L16.3556 30.9283C14.0294 31.096 12.0498 29.2541 12.0498 26.9218V11.7207Z" fill="#4B70F5"/>
<path d="M20.8992 25.3506H17.4731V12.9234H20.8992V18.3517H25.4385V12.9234H28.8646V25.3506H25.4385V19.931H20.8992V25.3506ZM41.8268 20.3452C41.8268 20.863 41.7578 21.3492 41.6197 21.8037C41.4816 22.2582 41.2889 22.6782 41.0415 23.0636C40.7999 23.4491 40.5065 23.7972 40.1613 24.1079C39.8161 24.4128 39.4363 24.6717 39.0221 24.8846C38.6136 25.0974 38.1735 25.2614 37.7017 25.3765C37.2357 25.4915 36.7553 25.5491 36.2605 25.5491C35.7657 25.5491 35.2853 25.4915 34.8193 25.3765C34.3533 25.2614 33.9132 25.0974 33.4989 24.8846C33.0904 24.6717 32.7136 24.4128 32.3684 24.1079C32.0232 23.7972 31.7269 23.4491 31.4795 23.0636C31.2379 22.6782 31.048 22.2582 30.9099 21.8037C30.7719 21.3434 30.7028 20.8573 30.7028 20.3452C30.7028 19.8332 30.7719 19.3499 30.9099 18.8954C31.048 18.4351 31.2379 18.0122 31.4795 17.6268C31.7269 17.2413 32.0232 16.8961 32.3684 16.5912C32.7136 16.2805 33.0904 16.0187 33.4989 15.8059C33.9132 15.593 34.3533 15.429 34.8193 15.3139C35.2853 15.1989 35.7657 15.1413 36.2605 15.1413C36.7553 15.1413 37.2357 15.1989 37.7017 15.3139C38.1735 15.429 38.6136 15.593 39.0221 15.8059C39.4363 16.0187 39.8161 16.2805 40.1613 16.5912C40.5065 16.8961 40.7999 17.2413 41.0415 17.6268C41.2889 18.0122 41.4816 18.4351 41.6197 18.8954C41.7578 19.3499 41.8268 19.8332 41.8268 20.3452ZM38.8581 20.3452C38.8581 20.0691 38.8409 19.7785 38.8064 19.4736C38.7776 19.1629 38.7258 18.8609 38.651 18.5674C38.5762 18.2683 38.4727 17.9835 38.3403 17.7131C38.2138 17.4369 38.0555 17.1982 37.8657 16.9968C37.6758 16.7897 37.4486 16.6257 37.1839 16.5049C36.9193 16.3783 36.6115 16.315 36.2605 16.315C35.9268 16.315 35.6305 16.3783 35.3716 16.5049C35.1127 16.6314 34.8855 16.8012 34.6899 17.014C34.5 17.2212 34.3389 17.4628 34.2066 17.739C34.08 18.0151 33.9764 18.3028 33.8959 18.602C33.8154 18.8954 33.7578 19.1945 33.7233 19.4995C33.6888 19.7986 33.6715 20.0806 33.6715 20.3452C33.6715 20.6099 33.6888 20.8946 33.7233 21.1996C33.7578 21.4987 33.8154 21.7979 33.8959 22.0971C33.9764 22.3963 34.08 22.6839 34.2066 22.9601C34.3389 23.2305 34.5 23.4721 34.6899 23.685C34.8855 23.8921 35.1127 24.059 35.3716 24.1855C35.6305 24.3121 35.9268 24.3754 36.2605 24.3754C36.6057 24.3754 36.9106 24.315 37.1753 24.1942C37.4399 24.0676 37.6672 23.9008 37.8571 23.6936C38.0527 23.4865 38.2138 23.2478 38.3403 22.9773C38.4669 22.7069 38.5676 22.4222 38.6424 22.123C38.7229 21.8238 38.7776 21.5218 38.8064 21.2168C38.8409 20.9119 38.8581 20.6214 38.8581 20.3452ZM48.5927 25.3506H45.9692L42.3446 15.383H45.2616L47.9196 23.3225L50.4999 15.383H52.5194L48.5927 25.3506ZM55.9455 20.6214C56.3022 20.7019 56.6589 20.7652 57.0156 20.8112C57.3723 20.8573 57.7319 20.8803 58.0943 20.8803C58.474 20.8803 58.825 20.8457 59.1472 20.7767C59.4751 20.7019 59.757 20.5811 59.9929 20.4142C60.2345 20.2416 60.4244 20.0144 60.5625 19.7325C60.7006 19.4506 60.7696 19.0996 60.7696 18.6796C60.7696 18.3402 60.7236 18.0295 60.6315 17.7476C60.5395 17.4657 60.4014 17.224 60.2173 17.0227C60.0389 16.8213 59.8174 16.666 59.5528 16.5567C59.2881 16.4416 58.9803 16.3841 58.6294 16.3841C58.3014 16.3841 58.0051 16.4445 57.7405 16.5653C57.4816 16.6861 57.2515 16.8501 57.0501 17.0572C56.8545 17.2586 56.6848 17.4944 56.5409 17.7649C56.4028 18.0353 56.2878 18.3172 56.1957 18.6106C56.1037 18.904 56.0375 19.2003 55.9972 19.4995C55.957 19.7986 55.9368 20.0806 55.9368 20.3452C55.9368 20.3912 55.9368 20.4373 55.9368 20.4833C55.9368 20.5293 55.9397 20.5753 55.9455 20.6214ZM63.1342 18.6537C63.1342 19.0622 63.068 19.4276 62.9357 19.7497C62.8034 20.0662 62.6222 20.3452 62.392 20.5868C62.1677 20.8285 61.9059 21.0327 61.6067 21.1996C61.3075 21.3664 60.9882 21.5045 60.6488 21.6138C60.3093 21.7174 59.9584 21.7922 59.5959 21.8382C59.2392 21.8842 58.8911 21.9072 58.5517 21.9072C58.1202 21.9072 57.6945 21.8785 57.2745 21.8209C56.8545 21.7576 56.4402 21.6598 56.0318 21.5275C56.095 21.9072 56.1957 22.2697 56.3338 22.6149C56.4719 22.9543 56.656 23.2535 56.8861 23.5124C57.1162 23.7655 57.3982 23.9669 57.7319 24.1165C58.0713 24.2661 58.4712 24.3409 58.9314 24.3409C59.2363 24.3409 59.5269 24.2949 59.803 24.2028C60.0792 24.1107 60.3323 23.9813 60.5625 23.8145C60.7926 23.6476 60.994 23.4491 61.1666 23.219C61.3449 22.9889 61.4888 22.7328 61.5981 22.4509L62.858 22.9169C62.6682 23.3714 62.4064 23.7655 62.0727 24.0992C61.7448 24.4272 61.3708 24.7005 60.9508 24.9191C60.5366 25.132 60.0936 25.2902 59.6218 25.3937C59.1558 25.4973 58.6927 25.5491 58.2324 25.5491C57.473 25.5491 56.7711 25.4225 56.1267 25.1694C55.4823 24.9105 54.9271 24.5509 54.4611 24.0906C53.9951 23.6303 53.6297 23.0809 53.3651 22.4423C53.1004 21.8037 52.9681 21.1046 52.9681 20.3452C52.9681 19.5858 53.1004 18.8867 53.3651 18.2481C53.6297 17.6095 53.9951 17.0601 54.4611 16.5998C54.9271 16.1395 55.4823 15.7828 56.1267 15.5297C56.7711 15.2708 57.473 15.1413 58.2324 15.1413C58.6006 15.1413 58.9774 15.1672 59.3629 15.219C59.7484 15.2708 60.1224 15.3542 60.4848 15.4693C60.8473 15.5786 61.1896 15.7224 61.5118 15.9008C61.834 16.0791 62.113 16.3006 62.3489 16.5653C62.5905 16.8242 62.7804 17.1262 62.9185 17.4714C63.0623 17.8166 63.1342 18.2107 63.1342 18.6537ZM73.4297 16.2632L71.7901 18.9817C71.721 18.7515 71.6318 18.4926 71.5225 18.205C71.4132 17.9173 71.278 17.6498 71.1169 17.4024C70.9558 17.1492 70.7631 16.9393 70.5387 16.7724C70.3143 16.5998 70.0554 16.5135 69.762 16.5135C69.4916 16.5135 69.2557 16.5825 69.0544 16.7206C68.8587 16.8587 68.6919 17.0399 68.5538 17.2643C68.4157 17.4829 68.3007 17.7332 68.2086 18.0151C68.1223 18.2913 68.0533 18.5732 68.0015 18.8609C67.9555 19.1428 67.9238 19.4161 67.9066 19.6807C67.8893 19.9396 67.8807 20.164 67.8807 20.3538V25.3506H64.9551V15.383H66.077L67.2593 17.7044C67.4204 17.3305 67.6045 16.9882 67.8116 16.6775C68.0188 16.361 68.2575 16.0906 68.5279 15.8663C68.7983 15.6361 69.1033 15.4578 69.4427 15.3312C69.7879 15.2046 70.1763 15.1413 70.6078 15.1413C70.8321 15.1413 71.0824 15.1615 71.3586 15.2018C71.6347 15.2363 71.9051 15.2996 72.1698 15.3916C72.4344 15.4779 72.6789 15.593 72.9033 15.7368C73.1277 15.8806 73.3032 16.0561 73.4297 16.2632Z" fill="white"/>
<path d="M86.5624 25.2383H83.3709V15.6261H81.3938V14.3645H83.3709V10.3634H86.5624V14.3645H89.8575V15.6261H86.5624V25.2383ZM101.927 25.2383H98.7448V23.9391C98.3682 24.4537 97.9132 24.8366 97.3797 25.0876C96.8525 25.3324 96.2719 25.4548 95.638 25.4548C94.8095 25.4548 94.0689 25.3073 93.4162 25.0123C92.7634 24.7173 92.2111 24.3157 91.7592 23.8073C91.3073 23.2926 90.9621 22.6901 90.7236 21.9997C90.4851 21.3093 90.3659 20.5687 90.3659 19.7779C90.3659 18.9871 90.4851 18.2464 90.7236 17.556C90.9621 16.8657 91.3073 16.2663 91.7592 15.7579C92.2111 15.2432 92.7634 14.8384 93.4162 14.5434C94.0689 14.2484 94.8095 14.1009 95.638 14.1009C96.0585 14.1009 96.457 14.1637 96.8336 14.2892C97.2165 14.4147 97.5648 14.5936 97.8786 14.8258C98.1987 15.0518 98.478 15.328 98.7165 15.6543C98.9613 15.9744 99.1527 16.3322 99.2908 16.7276L100.703 14.3645H101.927V25.2383ZM98.7259 19.7779C98.7259 19.4954 98.7102 19.1973 98.6789 18.8835C98.6538 18.5697 98.6067 18.259 98.5376 17.9515C98.4686 17.6439 98.3713 17.3521 98.2458 17.0759C98.1265 16.7935 97.9696 16.5456 97.7751 16.3322C97.5868 16.1125 97.3577 15.9399 97.0878 15.8144C96.8179 15.6888 96.5041 15.6261 96.1464 15.6261C95.7886 15.6261 95.4779 15.692 95.2143 15.8238C94.9507 15.9493 94.7248 16.1219 94.5365 16.3416C94.3482 16.555 94.1913 16.8029 94.0658 17.0853C93.9465 17.3678 93.8524 17.6627 93.7833 17.9703C93.7143 18.2778 93.6641 18.5885 93.6327 18.9023C93.6076 19.2099 93.595 19.5017 93.595 19.7779C93.595 20.054 93.6076 20.349 93.6327 20.6628C93.6641 20.9767 93.7143 21.2873 93.7833 21.5949C93.8524 21.9024 93.9465 22.1974 94.0658 22.4798C94.1913 22.7623 94.3482 23.0133 94.5365 23.233C94.7248 23.4464 94.9507 23.619 95.2143 23.7508C95.4779 23.8763 95.7886 23.9391 96.1464 23.9391C96.4727 23.9391 96.7614 23.8732 97.0125 23.7414C97.2698 23.6033 97.4926 23.4213 97.6809 23.1953C97.8755 22.9694 98.0387 22.7121 98.1705 22.4233C98.3023 22.1346 98.409 21.8365 98.4906 21.529C98.5722 21.2214 98.6318 20.917 98.6694 20.6158C98.7071 20.3082 98.7259 20.0289 98.7259 19.7779ZM113.949 21.7643C113.949 22.2413 113.88 22.665 113.742 23.0353C113.604 23.4056 113.416 23.7288 113.177 24.005C112.939 24.2749 112.656 24.504 112.33 24.6922C112.004 24.8743 111.652 25.0217 111.275 25.1347C110.905 25.2477 110.516 25.3293 110.108 25.3795C109.7 25.4297 109.295 25.4548 108.894 25.4548C108.354 25.4548 107.877 25.4203 107.463 25.3513C107.048 25.2822 106.653 25.1724 106.276 25.0217C105.9 24.8648 105.523 24.664 105.147 24.4192C104.776 24.1744 104.362 23.8763 103.904 23.5248L105.759 22.0091C105.928 22.3292 106.151 22.6211 106.427 22.8847C106.709 23.142 107.001 23.3648 107.303 23.5531C107.604 23.7414 107.896 23.8857 108.178 23.9862C108.461 24.0866 108.69 24.1368 108.865 24.1368C109.01 24.1368 109.173 24.1336 109.355 24.1274C109.537 24.1148 109.722 24.096 109.91 24.0709C110.099 24.0395 110.284 23.9956 110.466 23.9391C110.648 23.8826 110.808 23.8073 110.946 23.7131C111.09 23.6127 111.203 23.4903 111.285 23.346C111.373 23.1953 111.417 23.0165 111.417 22.8093C111.417 22.5959 111.36 22.4108 111.247 22.2539C111.141 22.0907 110.999 21.9495 110.824 21.8302C110.648 21.711 110.447 21.6106 110.221 21.529C109.995 21.4474 109.766 21.3752 109.534 21.3124C109.308 21.2497 109.088 21.1963 108.875 21.1524C108.661 21.1022 108.476 21.0551 108.319 21.0112C108.031 20.9296 107.726 20.848 107.406 20.7664C107.086 20.6785 106.769 20.5812 106.455 20.4745C106.141 20.3616 105.84 20.2298 105.551 20.0791C105.269 19.9285 105.018 19.7496 104.798 19.5425C104.585 19.3291 104.412 19.0812 104.28 18.7988C104.155 18.5101 104.092 18.1743 104.092 17.7914C104.092 17.0885 104.23 16.5016 104.506 16.0309C104.789 15.5539 105.159 15.1742 105.617 14.8917C106.076 14.603 106.596 14.3991 107.18 14.2798C107.764 14.1606 108.357 14.1009 108.959 14.1009C109.374 14.1009 109.81 14.1449 110.268 14.2327C110.726 14.3143 111.172 14.4398 111.605 14.6093C112.038 14.7725 112.443 14.9733 112.819 15.2118C113.196 15.4503 113.51 15.7234 113.761 16.0309L111.906 17.556C111.768 17.1795 111.586 16.8562 111.36 16.5864C111.141 16.3165 110.899 16.0968 110.635 15.9273C110.378 15.7516 110.111 15.6229 109.835 15.5413C109.565 15.4598 109.314 15.419 109.082 15.419C108.856 15.419 108.602 15.4284 108.319 15.4472C108.037 15.466 107.77 15.5194 107.519 15.6072C107.274 15.6951 107.064 15.8301 106.888 16.0121C106.719 16.1878 106.634 16.4326 106.634 16.7464C106.634 16.9723 106.684 17.1669 106.785 17.3301C106.891 17.487 107.03 17.6251 107.199 17.7443C107.368 17.8573 107.56 17.9546 107.773 18.0362C107.993 18.1115 108.216 18.1805 108.442 18.2433C108.668 18.2998 108.887 18.35 109.101 18.3939C109.314 18.4379 109.506 18.4849 109.675 18.5352C109.964 18.6167 110.268 18.7015 110.588 18.7893C110.915 18.8709 111.235 18.9682 111.548 19.0812C111.862 19.1879 112.164 19.3166 112.452 19.4672C112.747 19.6115 113.005 19.7904 113.224 20.0038C113.444 20.2172 113.62 20.4683 113.751 20.757C113.883 21.0394 113.949 21.3752 113.949 21.7643ZM119.146 25.2383H115.964V10.3634H119.146V20.1262C119.667 19.7496 120.178 19.3354 120.681 18.8835C121.189 18.4316 121.672 17.9577 122.13 17.4619C122.589 16.9598 123.012 16.4483 123.401 15.9273C123.797 15.4064 124.142 14.8855 124.437 14.3645H126.602C126.163 15.1051 125.642 15.8457 125.039 16.5864C124.437 17.3207 123.781 18.0236 123.072 18.6952L126.64 25.2383H123.128L120.596 20.7005C120.125 21.0206 119.642 21.3156 119.146 21.5855V25.2383Z" fill="#4B70F5"/>
<g clip-path="url(#clip0_1379_41440)">
<path d="M75.2445 29.9103C74.8328 30.0122 74.5816 30.4285 74.6834 30.8402C74.7853 31.2519 75.2016 31.5031 75.6133 31.4012L76.5222 31.1764L76.9754 32.0312C76.9804 32.0411 76.9856 32.0509 76.991 32.0606L79.0039 35.8573L78.5031 36.6873C77.7962 37.8588 78.8587 39.3002 80.187 38.9716L86.5873 37.3883C86.999 37.2864 87.2502 36.8701 87.1483 36.4584C87.0465 36.0467 86.6302 35.7955 86.2185 35.8974L79.8181 37.4807L80.3792 36.5508L85.2886 35.3363C85.571 35.2665 85.7897 35.0431 85.8534 34.7593L86.9833 29.7333C87.0417 29.4737 86.9615 29.2023 86.7713 29.0161C86.5811 28.8299 86.3081 28.7555 86.0497 28.8194L78.059 30.7962L77.5983 29.9272C77.4332 29.6159 77.0775 29.4569 76.7354 29.5415L75.2445 29.9103Z" fill="#4B70F5"/>
<path d="M87.7938 39.0675C87.9466 39.6851 87.5698 40.3095 86.9523 40.4623C86.3347 40.6151 85.7102 40.2383 85.5575 39.6208C85.4047 39.0032 85.7815 38.3787 86.399 38.2259C87.0166 38.0732 87.641 38.45 87.7938 39.0675Z" fill="#4B70F5"/>
<path d="M80.9886 41.9376C81.6062 41.7848 81.9829 41.1604 81.8302 40.5428C81.6774 39.9253 81.0529 39.5485 80.4354 39.7013C79.8178 39.854 79.441 40.4785 79.5938 41.0961C79.7466 41.7136 80.371 42.0904 80.9886 41.9376Z" fill="#4B70F5"/>
</g>
<defs>
<clipPath id="clip0_1379_41440">
<rect width="16.0674" height="16.0674" fill="white" transform="translate(72.3018 29.0859) rotate(-13.895)"/>
</clipPath>
</defs>
</svg>
