<svg width="18" height="19" viewBox="0 0 18 19" fill="none" xmlns="http://www.w3.org/2000/svg">
<path d="M15.1371 11.9741L14.3443 11.1809L12.8946 12.6312L11.4448 11.1809L10.6521 11.9741L12.1018 13.4234L10.6521 14.8731L11.4448 15.6659L12.8946 14.2161L14.3443 15.6659L15.1371 14.8731L13.6873 13.4234L15.1371 11.9741ZM13.4552 2.77148C12.8607 2.77223 12.2907 3.00873 11.8703 3.42912C11.4499 3.84951 11.2134 4.41946 11.2127 5.01398C11.2147 5.41303 11.3245 5.80412 11.5306 6.14589L5.61708 12.0594C5.27531 11.8533 4.88423 11.7435 4.48518 11.7415C4.04165 11.7415 3.60809 11.873 3.23931 12.1194C2.87053 12.3658 2.58311 12.7161 2.41338 13.1258C2.24365 13.5356 2.19924 13.9865 2.28577 14.4215C2.37229 14.8565 2.58587 15.2561 2.89949 15.5697C3.21311 15.8833 3.61268 16.0969 4.04769 16.1834C4.48269 16.2699 4.93358 16.2255 5.34334 16.0558C5.75311 15.8861 6.10334 15.5986 6.34975 15.2299C6.59616 14.8611 6.72768 14.4275 6.72768 13.984C6.72564 13.5849 6.61581 13.1939 6.4098 12.8521L12.3233 6.93861C12.665 7.14462 13.0561 7.25445 13.4552 7.25648C14.0499 7.25648 14.6203 7.02022 15.0409 6.59967C15.4614 6.17912 15.6977 5.60873 15.6977 5.01398C15.6977 4.41924 15.4614 3.84885 15.0409 3.4283C14.6203 3.00775 14.0499 2.77148 13.4552 2.77148ZM4.48518 15.1052C4.26341 15.1052 4.04663 15.0395 3.86224 14.9163C3.67786 14.7931 3.53414 14.618 3.44928 14.4131C3.36441 14.2082 3.34221 13.9827 3.38547 13.7652C3.42873 13.5477 3.53552 13.348 3.69233 13.1911C3.84914 13.0343 4.04893 12.9275 4.26643 12.8843C4.48393 12.841 4.70938 12.8632 4.91426 12.9481C5.11914 13.0329 5.29426 13.1767 5.41746 13.3611C5.54067 13.5454 5.60643 13.7622 5.60643 13.984C5.60643 14.2814 5.4883 14.5666 5.27802 14.7768C5.06774 14.9871 4.78255 15.1052 4.48518 15.1052ZM13.4552 6.13523C13.2334 6.13523 13.0166 6.06947 12.8322 5.94627C12.6479 5.82307 12.5041 5.64795 12.4193 5.44307C12.3344 5.23819 12.3122 5.01274 12.3555 4.79524C12.3987 4.57774 12.5055 4.37795 12.6623 4.22114C12.8191 4.06433 13.0189 3.95754 13.2364 3.91428C13.4539 3.87102 13.6794 3.89322 13.8843 3.97808C14.0891 4.06295 14.2643 4.20666 14.3875 4.39105C14.5107 4.57544 14.5764 4.79222 14.5764 5.01398C14.5764 5.31136 14.4583 5.59655 14.248 5.80683C14.0377 6.0171 13.7526 6.13523 13.4552 6.13523ZM4.48518 6.79677L3.03316 5.34475L2.24268 6.13523L4.48518 8.37773L8.40955 4.45336L7.61907 3.66288L4.48518 6.79677Z" fill="white"/>
</svg>
