<svg width="22" height="25" viewBox="0 0 22 25" fill="none" xmlns="http://www.w3.org/2000/svg">
<path d="M21.1198 6.94258C21.7546 6.55219 21.9585 5.71522 21.4983 5.12908C20.2047 3.48186 18.4904 2.20179 16.5254 1.43128C14.14 0.495875 11.5149 0.362322 9.04684 1.0508C6.57878 1.73928 4.40187 3.21237 2.84507 5.24749C1.28827 7.2826 0.43617 9.76914 0.417541 12.3314C0.398912 14.8936 1.21476 17.3922 2.74181 19.4498C4.26885 21.5073 6.42411 23.0119 8.8819 23.7362C11.3397 24.4605 13.9664 24.3651 16.3652 23.4645C18.3412 22.7227 20.074 21.4676 21.3913 19.8394C21.8601 19.26 21.6683 18.4202 21.0393 18.0206C20.4102 17.621 19.5832 17.8153 19.095 18.3785C18.106 19.5195 16.8435 20.4022 15.4166 20.9379C13.5665 21.6325 11.5405 21.7061 9.64479 21.1474C7.74912 20.5888 6.08678 19.4283 4.90898 17.8414C3.73118 16.2544 3.10193 14.3272 3.11629 12.351C3.13066 10.3748 3.78788 8.45691 4.98863 6.88725C6.18938 5.31758 7.86841 4.18139 9.772 3.65037C11.6756 3.11936 13.7003 3.22237 15.5402 3.94384C16.9591 4.50024 18.2087 5.40118 19.181 6.55648C19.6609 7.12667 20.485 7.33298 21.1198 6.94258Z" fill="#8DA6FF"/>
</svg>
