<svg width="18" height="19" viewBox="0 0 18 19" fill="none" xmlns="http://www.w3.org/2000/svg">
<path d="M8.97002 13.9846C8.57836 13.9847 8.19895 13.8481 7.89723 13.5984C7.59551 13.3487 7.39041 13.0015 7.3173 12.6167C6.21749 12.2768 5.24898 11.6066 4.54332 10.6971C4.0106 10.0111 3.64456 9.21073 3.47406 8.35907C3.30357 7.50741 3.33329 6.62778 3.56088 5.78957C3.78848 4.95136 4.20771 4.17749 4.78553 3.52901C5.36334 2.88053 6.08393 2.37517 6.89044 2.0528C7.69696 1.73043 8.56735 1.59986 9.43296 1.67139C10.2986 1.74292 11.1357 2.0146 11.8784 2.46499C12.621 2.91539 13.2489 3.53218 13.7124 4.26671C14.1759 5.00125 14.4625 5.83344 14.5494 6.69764C14.5796 7.00598 14.3251 7.25714 14.0156 7.25714C13.7062 7.25714 13.4584 7.00486 13.4214 6.69764C13.3213 5.90472 13.0112 5.15295 12.5231 4.52011C12.035 3.88727 11.3867 3.39634 10.6452 3.09813C9.90371 2.79992 9.09601 2.70526 8.30567 2.82394C7.51533 2.94262 6.77105 3.27033 6.14986 3.77316C5.52866 4.27599 5.05311 4.93568 4.77241 5.68397C4.49171 6.43226 4.41606 7.24196 4.55329 8.02929C4.69051 8.81662 5.03562 9.55299 5.55292 10.1622C6.07021 10.7714 6.7409 11.2313 7.49558 11.4943C7.63825 11.2341 7.84727 11.0162 8.10141 10.8628C8.35555 10.7094 8.64575 10.626 8.94254 10.6211C9.23932 10.6162 9.53213 10.6899 9.79121 10.8348C10.0503 10.9796 10.2664 11.1905 10.4176 11.4459C10.5689 11.7013 10.6498 11.9922 10.6522 12.289C10.6547 12.5858 10.5785 12.878 10.4315 13.1359C10.2844 13.3937 10.0718 13.6081 9.81509 13.7571C9.55841 13.9062 9.26685 13.9847 8.97002 13.9846ZM4.48502 12.3028V12.2725C4.17843 11.9979 3.89769 11.6958 3.64632 11.3699C3.46212 11.6461 3.36381 11.9707 3.36377 12.3028V12.8634C3.36377 15.0734 5.44929 17.3484 8.97002 17.3484C12.4907 17.3484 14.5763 15.0734 14.5763 12.8634V12.3028C14.5763 11.8567 14.3991 11.4289 14.0837 11.1135C13.7682 10.7981 13.3405 10.6209 12.8944 10.6209H11.2125C11.4581 10.9461 11.633 11.3273 11.7171 11.7421H12.8944C13.0431 11.7421 13.1857 11.8012 13.2908 11.9063C13.396 12.0115 13.455 12.1541 13.455 12.3028V12.8634C13.455 14.4757 11.8494 16.2271 8.97002 16.2271C6.09065 16.2271 4.48502 14.4757 4.48502 12.8634V12.3028ZM8.97002 9.49964C8.32845 9.49961 7.7063 9.71967 7.20741 10.1231C6.7172 9.82272 6.31245 9.40137 6.03205 8.89949C5.75165 8.3976 5.60503 7.83204 5.60627 7.25714C5.60643 6.6707 5.75991 6.0945 6.05148 5.58568C6.34305 5.07686 6.76258 4.65311 7.26845 4.35646C7.77432 4.0598 8.34896 3.90056 8.93537 3.89452C9.52177 3.88848 10.0996 4.03585 10.6114 4.32201C11.1233 4.60818 11.5515 5.0232 11.8535 5.5259C12.1555 6.02861 12.3208 6.60153 12.333 7.18784C12.3453 7.77415 12.204 8.35347 11.9233 8.86835C11.6426 9.38323 11.2321 9.81576 10.7326 10.1231C10.2337 9.71967 9.61158 9.49961 8.97002 9.49964ZM6.72752 7.25714C6.72752 7.85189 6.96378 8.42228 7.38433 8.84283C7.80488 9.26338 8.37527 9.49964 8.97002 9.49964C9.56477 9.49964 10.1352 9.26338 10.5557 8.84283C10.9763 8.42228 11.2125 7.85189 11.2125 7.25714C11.2125 6.66239 10.9763 6.092 10.5557 5.67145C10.1352 5.2509 9.56477 5.01464 8.97002 5.01464C8.37527 5.01464 7.80488 5.2509 7.38433 5.67145C6.96378 6.092 6.72752 6.66239 6.72752 7.25714Z" fill="white"/>
</svg>
