<svg width="18" height="19" viewBox="0 0 18 19" fill="none" xmlns="http://www.w3.org/2000/svg">
<g clip-path="url(#clip0_2655_33675)">
<path fill-rule="evenodd" clip-rule="evenodd" d="M11.9602 10.9934C12.9514 10.9934 13.9021 11.3872 14.603 12.0881C15.3039 12.789 15.6977 13.7397 15.6977 14.7309V16.2259C15.6977 16.4242 15.6189 16.6143 15.4787 16.7545C15.3386 16.8947 15.1484 16.9734 14.9502 16.9734C14.7519 16.9734 14.5618 16.8947 14.4216 16.7545C14.2814 16.6143 14.2027 16.4242 14.2027 16.2259V14.7309C14.2027 14.1362 13.9664 13.5658 13.5459 13.1453C13.1253 12.7247 12.5549 12.4884 11.9602 12.4884H5.98018C5.38543 12.4884 4.81504 12.7247 4.39449 13.1453C3.97394 13.5658 3.73768 14.1362 3.73768 14.7309V16.2259C3.73768 16.4242 3.65892 16.6143 3.51874 16.7545C3.37855 16.8947 3.18843 16.9734 2.99018 16.9734C2.79193 16.9734 2.6018 16.8947 2.46161 16.7545C2.32143 16.6143 2.24268 16.4242 2.24268 16.2259V14.7309C2.24268 13.7397 2.63645 12.789 3.33736 12.0881C4.03828 11.3872 4.98893 10.9934 5.98018 10.9934H11.9602ZM16.0071 7.31649C16.1413 7.181 16.3223 7.10193 16.5129 7.09546C16.7035 7.089 16.8893 7.15562 17.0324 7.2817C17.1755 7.40778 17.265 7.58378 17.2825 7.77367C17.3001 7.96357 17.2444 8.153 17.1269 8.30319L17.0641 8.3742L14.9502 10.4881C14.8215 10.6168 14.6502 10.6941 14.4685 10.7056C14.2869 10.717 14.1073 10.6617 13.9635 10.5502L13.8932 10.4881L12.8362 9.43116C12.7008 9.29696 12.6217 9.11604 12.6152 8.92544C12.6088 8.73485 12.6754 8.54899 12.8015 8.40591C12.9275 8.26283 13.1035 8.17334 13.2934 8.15578C13.4833 8.13821 13.6728 8.19388 13.8229 8.31141L13.8932 8.37345L14.4217 8.90268L16.0071 7.31649ZM8.97018 2.02344C9.96142 2.02344 10.9121 2.41721 11.613 3.11813C12.3139 3.81904 12.7077 4.76969 12.7077 5.76094C12.7077 6.75218 12.3139 7.70283 11.613 8.40375C10.9121 9.10467 9.96142 9.49844 8.97018 9.49844C7.97893 9.49844 7.02828 9.10467 6.32736 8.40375C5.62645 7.70283 5.23268 6.75218 5.23268 5.76094C5.23268 4.76969 5.62645 3.81904 6.32736 3.11813C7.02828 2.41721 7.97893 2.02344 8.97018 2.02344ZM8.97018 3.51844C8.67569 3.51844 8.38408 3.57644 8.11201 3.68914C7.83994 3.80183 7.59272 3.96702 7.38449 4.17525C7.17625 4.38349 7.01107 4.6307 6.89838 4.90277C6.78568 5.17484 6.72768 5.46645 6.72768 5.76094C6.72768 6.05543 6.78568 6.34703 6.89838 6.61911C7.01107 6.89118 7.17625 7.13839 7.38449 7.34663C7.59272 7.55486 7.83994 7.72004 8.11201 7.83274C8.38408 7.94543 8.67569 8.00344 8.97018 8.00344C9.56492 8.00344 10.1353 7.76718 10.5559 7.34663C10.9764 6.92607 11.2127 6.35569 11.2127 5.76094C11.2127 5.16619 10.9764 4.5958 10.5559 4.17525C10.1353 3.7547 9.56492 3.51844 8.97018 3.51844Z" fill="white"/>
</g>
<defs>
<clipPath id="clip0_2655_33675">
<rect width="17.94" height="17.94" fill="white" transform="translate(0 0.529297)"/>
</clipPath>
</defs>
</svg>
