<svg width="12" height="13" viewBox="0 0 12 13" fill="none" xmlns="http://www.w3.org/2000/svg">
<path d="M6.27989 10.91C6.19829 10.9686 6.10036 11.0001 5.99989 11.0001C5.89942 11.0001 5.80149 10.9686 5.71989 10.91C3.30539 9.189 0.74289 5.649 3.33339 3.091C4.04456 2.39142 5.00231 1.99956 5.99989 2C6.99989 2 7.95939 2.3925 8.66639 3.0905C11.2569 5.6485 8.69439 9.188 6.27989 10.91Z" stroke="black" stroke-opacity="0.4" stroke-linecap="round" stroke-linejoin="round"/>
<path d="M6 6.5C6.26522 6.5 6.51957 6.39464 6.70711 6.20711C6.89464 6.01957 7 5.76522 7 5.5C7 5.23478 6.89464 4.98043 6.70711 4.79289C6.51957 4.60536 6.26522 4.5 6 4.5C5.73478 4.5 5.48043 4.60536 5.29289 4.79289C5.10536 4.98043 5 5.23478 5 5.5C5 5.76522 5.10536 6.01957 5.29289 6.20711C5.48043 6.39464 5.73478 6.5 6 6.5Z" stroke="black" stroke-opacity="0.4" stroke-linecap="round" stroke-linejoin="round"/>
</svg>
