<svg width="18" height="19" viewBox="0 0 18 19" fill="none" xmlns="http://www.w3.org/2000/svg">
<path d="M3.7375 8.75094H9.7175V10.2459H3.7375V12.4884L0 9.49844L3.7375 6.50844V8.75094ZM2.99 13.9834H5.01423C5.87736 14.7446 6.9418 15.2406 8.07982 15.4119C9.21785 15.5831 10.3811 15.4223 11.43 14.9488C12.4789 14.4753 13.3689 13.7092 13.9933 12.7424C14.6176 11.7757 14.9496 10.6493 14.9496 9.49844C14.9496 8.3476 14.6176 7.22121 13.9933 6.25443C13.3689 5.28764 12.4789 4.52154 11.43 4.04804C10.3811 3.57454 9.21785 3.41377 8.07982 3.58501C6.9418 3.75625 5.87736 4.25223 5.01423 5.01344H2.99C3.68587 4.08464 4.58865 3.33082 5.62668 2.81181C6.66472 2.29279 7.80944 2.02286 8.97 2.02344C13.0984 2.02344 16.445 5.37 16.445 9.49844C16.445 13.6269 13.0984 16.9734 8.97 16.9734C7.80944 16.974 6.66472 16.7041 5.62668 16.1851C4.58865 15.6661 3.68587 14.9122 2.99 13.9834Z" fill="white"/>
</svg>
