<svg width="18" height="19" viewBox="0 0 18 19" fill="none" xmlns="http://www.w3.org/2000/svg">
<g clip-path="url(#clip0_2655_33654)">
<path d="M4.48535 6.50977H7.47535" stroke="white" stroke-width="1.12125" stroke-linecap="round" stroke-linejoin="round"/>
<path d="M16.4449 8.37906C16.4449 8.32151 16.4449 7.98065 16.4434 7.95673C16.4165 7.58223 16.0958 7.28397 15.6922 7.25931C15.6668 7.25781 15.6361 7.25781 15.5733 7.25781H13.6283C12.2933 7.25781 11.2124 8.26171 11.2124 9.50031C11.2124 10.7389 12.294 11.7428 13.6268 11.7428H15.5726C15.6354 11.7428 15.666 11.7428 15.6922 11.7413C16.0958 11.7167 16.4172 11.4184 16.4434 11.0439C16.4449 11.02 16.4449 10.6791 16.4449 10.6216" stroke="white" stroke-width="1.12125" stroke-linecap="round"/>
<path d="M13.455 10.247C13.8679 10.247 14.2025 9.91229 14.2025 9.49945C14.2025 9.08662 13.8679 8.75195 13.455 8.75195C13.0422 8.75195 12.7075 9.08662 12.7075 9.49945C12.7075 9.91229 13.0422 10.247 13.455 10.247Z" fill="white"/>
<path d="M9.71762 3.51953C12.5364 3.51953 13.9462 3.51953 14.8215 4.3956C15.4263 4.99958 15.6139 5.85771 15.6715 7.25703M7.47512 15.4795H9.71762C12.5364 15.4795 13.9462 15.4795 14.8215 14.6035C15.4263 13.9995 15.6139 13.1414 15.6715 11.742M6.72762 3.51953C4.3999 3.52701 3.16578 3.60026 2.37119 4.3956C1.49512 5.27092 1.49512 6.68071 1.49512 9.49953C1.49512 12.3184 1.49512 13.7281 2.37119 14.6035C2.8593 15.0923 3.51337 15.3084 4.48512 15.4033" stroke="white" stroke-width="1.12125" stroke-linecap="round"/>
</g>
<defs>
<clipPath id="clip0_2655_33654">
<rect width="17.94" height="17.94" fill="white" transform="translate(0 0.529297)"/>
</clipPath>
</defs>
</svg>
