<svg width="11" height="11" viewBox="0 0 11 11" fill="none" xmlns="http://www.w3.org/2000/svg">
                        <g clip-path="url(#clip0_2601_30632)">
                            <path
                                d="M7.54347 3.59593H8.83504C8.91315 3.59601 8.98846 3.62508 9.04636 3.67751C9.10427 3.72994 9.14065 3.802 9.14847 3.87972L9.34081 5.80319H8.70638L8.54872 4.22658H7.54347V5.17254C7.54347 5.25617 7.51025 5.33638 7.45112 5.39551C7.39198 5.45464 7.31178 5.48787 7.22815 5.48787C7.14452 5.48787 7.06432 5.45464 7.00518 5.39551C6.94605 5.33638 6.91283 5.25617 6.91283 5.17254V4.22658H4.39025V5.17254C4.39025 5.25617 4.35703 5.33638 4.29789 5.39551C4.23876 5.45464 4.15855 5.48787 4.07493 5.48787C3.9913 5.48787 3.91109 5.45464 3.85196 5.39551C3.79282 5.33638 3.7596 5.25617 3.7596 5.17254V4.22658H2.75372L2.24921 9.27174H5.65154V9.90238H1.90046C1.85642 9.90234 1.81287 9.89307 1.77263 9.87517C1.73239 9.85728 1.69635 9.83115 1.66682 9.79847C1.63729 9.76579 1.61493 9.72729 1.60119 9.68545C1.58745 9.64361 1.58263 9.59935 1.58703 9.55553L2.15461 3.87972C2.16242 3.802 2.19881 3.72994 2.25671 3.67751C2.31462 3.62508 2.38993 3.59601 2.46804 3.59593H3.7596V3.37584C3.7596 2.2823 4.60214 1.38867 5.65154 1.38867C6.70093 1.38867 7.54347 2.2823 7.54347 3.37584V3.59656V3.59593ZM6.91283 3.59593V3.37584C6.91283 2.62284 6.34399 2.01932 5.65154 2.01932C4.95909 2.01932 4.39025 2.62284 4.39025 3.37584V3.59656H6.91283V3.59593ZM8.89747 8.36361L8.17412 7.64089V9.90238C8.17412 9.98601 8.1409 10.0662 8.08176 10.1254C8.02263 10.1845 7.94243 10.2177 7.8588 10.2177C7.77517 10.2177 7.69496 10.1845 7.63583 10.1254C7.57669 10.0662 7.54347 9.98601 7.54347 9.90238V7.64089L6.82075 8.36361C6.79167 8.39373 6.75687 8.41775 6.7184 8.43427C6.67993 8.4508 6.63855 8.4595 6.59669 8.45986C6.55482 8.46022 6.5133 8.45225 6.47454 8.43639C6.43579 8.42054 6.40059 8.39712 6.37098 8.36752C6.34137 8.33791 6.31796 8.3027 6.30211 8.26395C6.28625 8.2252 6.27827 8.18368 6.27864 8.14181C6.279 8.09994 6.2877 8.05857 6.30422 8.02009C6.32075 7.98162 6.34477 7.94683 6.37489 7.91774L7.63618 6.65645C7.69531 6.59734 7.7755 6.56413 7.85911 6.56413C7.94272 6.56413 8.02291 6.59734 8.08204 6.65645L9.34334 7.91774C9.37345 7.94683 9.39747 7.98162 9.414 8.02009C9.43053 8.05857 9.43922 8.09994 9.43959 8.14181C9.43995 8.18368 9.43197 8.2252 9.41612 8.26395C9.40026 8.3027 9.37685 8.33791 9.34724 8.36752C9.31764 8.39712 9.28243 8.42054 9.24368 8.43639C9.20493 8.45225 9.16341 8.46022 9.12154 8.45986C9.07967 8.4595 9.03829 8.4508 8.99982 8.43427C8.96135 8.41775 8.92656 8.39373 8.89747 8.36361Z"
                                fill="white"
                            />
                        </g>
                        <defs>
                            <clipPath id="clip0_2601_30632">
                                <rect
                                    width="10.0903"
                                    height="10.0903"
                                    fill="white"
                                    transform="translate(0.605957 0.757812)"
                                />
                            </clipPath>
                        </defs>
                    </svg>