<svg width="21" height="20" viewBox="0 0 21 20" fill="none" xmlns="http://www.w3.org/2000/svg">
<path d="M4.67952 6.50732H12.2179H11.5229H11.782H4.67952ZM4.99619 5.67398H16.0129L14.9045 4.34398C14.8506 4.29065 14.789 4.24787 14.7195 4.21565C14.6501 4.18343 14.5779 4.16732 14.5029 4.16732H6.50619C6.43175 4.16732 6.35952 4.18343 6.28952 4.21565C6.21952 4.24787 6.15841 4.29065 6.10619 4.34398L4.99619 5.67398ZM8.84619 10.8023L10.5129 9.96898L12.1795 10.8023V6.50732H8.84619V10.8023ZM12.2045 16.6673H5.19369C4.82314 16.6673 4.50619 16.5354 4.24286 16.2715C3.97952 16.0076 3.8473 15.6912 3.84619 15.3223V6.23898C3.84619 6.08232 3.87202 5.93093 3.92369 5.78482C3.97536 5.63871 4.05314 5.50537 4.15702 5.38482L5.45536 3.82648C5.57591 3.6676 5.72675 3.54593 5.90786 3.46148C6.08897 3.37704 6.28397 3.33454 6.49286 3.33398H14.5012C14.7101 3.33398 14.907 3.37648 15.092 3.46148C15.277 3.54593 15.4312 3.6676 15.5545 3.82648L16.8687 5.41732C16.9726 5.54232 17.0504 5.67898 17.102 5.82732C17.1537 5.9751 17.1795 6.12843 17.1795 6.28732V9.42565C17.0651 9.39232 16.9437 9.36926 16.8154 9.35648C16.6876 9.34371 16.5634 9.33732 16.4429 9.33732H16.3462V6.50732H13.0129V10.8007C12.8579 10.9073 12.704 11.0507 12.5512 11.2307C12.3984 11.4107 12.2873 11.5868 12.2179 11.759L10.5129 10.914L8.01286 12.164V6.50732H4.67952V15.3215C4.67952 15.4709 4.72758 15.5937 4.82369 15.6898C4.9198 15.7859 5.04286 15.834 5.19286 15.834H11.782C11.832 15.9895 11.8942 16.1351 11.9687 16.2707C12.0431 16.4057 12.122 16.5379 12.2054 16.6673M16.0095 17.164V14.664H13.5095V13.8307H16.0095V11.3307H16.8429V13.8307H19.3429V14.664H16.8429V17.164H16.0095Z" fill="white"/>
</svg>
