<svg width="18" height="18" viewBox="0 0 18 18" fill="none" xmlns="http://www.w3.org/2000/svg">
<g clip-path="url(#clip0_2655_33668)">
<path d="M14.2027 4.51484H12.7077C12.7077 2.42184 11.0632 0.777344 8.97018 0.777344C6.87718 0.777344 5.23268 2.42184 5.23268 4.51484H3.73768C2.91543 4.51484 2.24268 5.18759 2.24268 6.00984V14.9798C2.24268 15.8021 2.91543 16.4748 3.73768 16.4748H14.2027C15.0249 16.4748 15.6977 15.8021 15.6977 14.9798V6.00984C15.6977 5.18759 15.0249 4.51484 14.2027 4.51484ZM8.97018 2.27234C10.2409 2.27234 11.2127 3.24409 11.2127 4.51484H6.72768C6.72768 3.24409 7.69943 2.27234 8.97018 2.27234ZM14.2027 14.9798H3.73768V6.00984H14.2027V14.9798ZM8.97018 8.99984C7.69943 8.99984 6.72768 8.02809 6.72768 6.75734H5.23268C5.23268 8.85034 6.87718 10.4948 8.97018 10.4948C11.0632 10.4948 12.7077 8.85034 12.7077 6.75734H11.2127C11.2127 8.02809 10.2409 8.99984 8.97018 8.99984Z" fill="#4B70F5"/>
</g>
<defs>
<clipPath id="clip0_2655_33668">
<rect width="17.94" height="17.94" fill="white" transform="translate(0 0.0292969)"/>
</clipPath>
</defs>
</svg>
